<?xml version="1.0" encoding="UTF-8" standalone="no"?>
<!-- Created with Inkscape (http://www.inkscape.org/) -->

<svg
   width="15.856146mm"
   height="22.135975mm"
   viewBox="0 0 15.856146 22.135975"
   version="1.1"
   id="svg1"
   xmlns="http://www.w3.org/2000/svg"
   xmlns:svg="http://www.w3.org/2000/svg">
  <defs
     id="defs1" />
  <path
     fill="#ebeff3"
     d="m 6.4602407,0.04268471 c 3.8441993,-0.17281 5.4890093,0.099 8.8391293,2.32673999 -0.63464,1.20783 -1.18392,2.28652 -1.75808,3.52787 -1.8279,-0.99645 -5.6055413,-2.78471 -7.7309233,-1.13403 -0.541993,0.42106 -0.912402,1.08874 -0.95801,1.83023 0.890043,3.32993 10.6549433,1.81511 10.9854833,7.9364803 0.301,5.58453 -3.14841,7.0759 -7.5264093,7.606 -3.480038,-0.12919 -5.493513,-0.84216 -8.3114339642618,-3.05818 L 1.9261297,15.306665 c 1.899901,1.31018 3.925815,2.64382 6.262852,2.62873 0.619138,0.0553 2.5375283,-0.2986 2.8633783,-1.03339 1.16222,-2.5096 -1.3872413,-3.4071 -3.4404343,-3.79628 -4.64397,-0.87902 -8.35627396,-3.6889403 -6.432774,-9.3892203 0.626119,-1.85536 3.460159,-3.07496999 5.281089,-3.67381999 z"
     id="path31-2"
     style="display:block;fill:#5e4f00;fill-opacity:1;stroke-width:0.16134" />
</svg>
