<?xml version="1.0" encoding="UTF-8" standalone="no"?>
<!-- Created with Inkscape (http://www.inkscape.org/) -->

<svg
   width="190.55772mm"
   height="28.447636mm"
   viewBox="0 0 190.55772 28.447636"
   version="1.1"
   id="svg1"
   xmlns="http://www.w3.org/2000/svg"
   xmlns:svg="http://www.w3.org/2000/svg">
  <defs
     id="defs1" />
  <path
     fill="#59f6db"
     d="m 48.051415,4.4311264 c 1.484408,0.0362 3.097032,0.005 4.590695,0.003 0.11632,2.74093 -0.705855,10.2336896 0.929242,12.1487496 0.592177,0.69422 1.407742,0.99917 2.306582,1.0227 0.851255,0.0223 1.669464,-0.22035 2.284112,-0.82931 0.477179,-0.47229 0.785162,-1.10373 0.926598,-1.75565 0.286836,-1.31508 0.138792,-2.84219 0.133504,-4.18635 -0.02511,-2.1297196 -0.01983,-4.2597096 0.01718,-6.3892996 l 4.570866,0.008 c 0.01983,2.0561 -0.656947,11.3372796 1.11562,12.3328796 6.934287,3.89317 5.437981,-6.9353496 5.452522,-10.3218596 l 0.01322,-1.98948 4.541788,-0.039 0.01983,6.0795996 c 0.01058,3.30376 0.343677,6.76787 -2.162503,9.31964 -3.136687,3.1934 -8.036688,3.29334 -11.220962,0.12201 -1.631131,1.40775 -3.274158,2.28477 -5.488214,2.32615 -2.114916,0.0304 -4.15317,-0.79111 -5.656084,-2.27975 -2.749394,-2.75455 -2.401753,-6.03069 -2.393822,-9.59102 z"
     id="path8-5"
     style="display:block;fill:#ffffff;fill-opacity:1;stroke-width:0.132182" />
  <path
     fill="#59f6db"
     d="m 10.416446,0.1073064 c 1.809577,-0.20885 7.288536,-0.05 9.330754,-0.0415 -0.177124,1.35724 -0.656945,3.32716 -0.958323,4.72195 -0.968896,-0.005 -2.009172,0.0134 -2.967493,-0.0173 C 10.641155,4.6052264 5.2288161,4.2786064 4.7881191,11.165966 7.7846951,8.9405464 13.817499,9.7015164 17.567514,9.7280864 17.359985,10.647546 16.741374,13.752116 16.25362,14.386066 l -0.526085,0.0679 -5.437983,-0.008 c -5.8042629,-5.3e-4 -5.7387009,2.81681 -5.7113369,7.63697 -1.449512,0.0424 -3.05738,0.0135 -4.51905196,0.0161 -0.068999,-2.08913 -0.023265,-4.26102 -0.040579,-6.3458 -0.035691,-4.28192 -0.2697851,-8.4649696 2.72758296,-11.9245696 2.110555,-2.43599 4.525661,-3.45472 7.6702789,-3.72187 z"
     id="path19-8"
     style="display:block;fill:#ffffff;fill-opacity:1;stroke-width:0.132182" />
  <path
     fill="#59f6db"
     d="m 21.416664,0.0527164 4.601269,-0.005 V 14.662996 c 0.0014,1.87197 0.125574,5.72773 -0.04626,7.45165 -1.517453,0.0112 -3.036229,0.0119 -4.553683,0.002 L 21.39552,7.8944764 c 0.0079,-2.54371 0.129539,-5.32417 0.02115,-7.84158 z"
     id="path38-8"
     style="display:block;fill:#ffffff;fill-opacity:1;stroke-width:0.132182" />
  <path
     fill="#ebeff3"
     d="m 163.76438,5.5675764 c 3.77531,-0.24323 7.61735,3.04477 8.50027,6.9903396 0.50428,2.15733 0.25601,4.43878 0.26842,6.6062 0.0325,5.97039 -3.80786,9.97299 -9.34595,9.18458 -2.05132,-0.29191 -3.41837,-1.06026 -5.17804,-2.23789 0.57415,-1.20276 1.06914,-2.02645 1.75967,-3.1655 2.15684,1.20951 5.55354,2.54483 7.61111,0.34892 1.34535,-1.43766 1.23827,-3.36181 1.2274,-5.25575 0.0543,-2.51299 0.51207,-6.95345 -2.13826,-8.1260496 -2.24996,-0.99477 -4.65512,-0.19627 -5.35183,2.4928396 -0.30722,1.14743 -0.14586,2.38379 0.44535,3.39369 1.54084,2.65052 4.0453,2.00634 6.09665,0.56031 l 0.12415,3.95395 c -2.52772,1.89563 -5.42012,1.87384 -7.90596,-0.12077 -1.60293,-1.29003 -2.64568,-3.23433 -2.88619,-5.37821 -0.56637,-4.8766296 2.29963,-8.6712696 6.77321,-9.2466596 z"
     id="path30-7"
     style="display:block;fill:#5e4f00;fill-opacity:1;stroke-width:0.16134" />
  <path
     fill="#ebeff3"
     d="m 87.069024,0.2095164 c 3.844199,-0.17281 5.489009,0.099 8.839129,2.32674 -0.63464,1.20783 -1.18392,2.28652 -1.75808,3.52787 -1.8279,-0.99645 -5.605541,-2.78471 -7.730923,-1.13403 -0.541993,0.42106 -0.912402,1.08874 -0.95801,1.83023 0.890043,3.3299296 10.654943,1.81511 10.985483,7.9364796 0.301,5.58453 -3.14841,7.0759 -7.526409,7.606 -3.480038,-0.12919 -5.493513,-0.84216 -8.311434,-3.05818 l 1.926133,-3.77113 c 1.899901,1.31018 3.925815,2.64382 6.262852,2.62873 0.619138,0.0553 2.537528,-0.2986 2.863378,-1.03339 1.16222,-2.5096 -1.387241,-3.4071 -3.440434,-3.79628 -4.64397,-0.87902 -8.356274,-3.6889396 -6.432774,-9.3892196 0.626119,-1.85536 3.460159,-3.07497 5.281089,-3.67382 z"
     id="path31-2"
     style="display:block;fill:#5e4f00;fill-opacity:1;stroke-width:0.16134" />
  <path
     fill="#ebeff3"
     d="m 182.02334,5.5441164 c 4.77615,-0.33552 6.76389,1.86709 8.5344,6.3058696 -2.46879,1.65407 -7.85631,4.16873 -9.68112,5.61142 l 0.0993,0.24658 c 2.11496,1.2917 3.36254,0.70123 5.03839,-1.00316 1.28174,-0.14427 2.78843,-0.11574 4.0934,-0.12752 -0.0698,0.18789 -0.14276,0.3741 -0.21722,0.55864 -1.91948,4.79444 -6.48306,6.31931 -10.73473,4.15026 -2.06687,-1.22464 -2.78378,-2.61026 -3.75825,-4.76088 1.59206,-0.874 9.44679,-4.97898 10.22887,-5.86638 l -0.16759,-0.33384 c -3.36874,-2.2395196 -5.78321,-0.23652 -6.66146,3.5866 -1.21811,0.62068 -2.42845,1.25648 -3.63101,1.90903 -0.31035,-5.31947 1.8248,-9.2063596 6.85699,-10.2766196 z"
     id="path34-3"
     style="display:block;fill:#5e4f00;fill-opacity:1;stroke-width:0.16134" />
  <path
     fill="#ebeff3"
     d="m 145.39216,5.5625464 c 0.1381,-0.01 0.27775,-0.0151 0.41742,-0.0184 3.99718,-0.0839 8.19456,4.4605996 8.37455,8.7349896 0.10707,2.53645 0.11018,5.12153 0.1505,7.66305 h -4.1182 c -0.006,-2.87364 0.16911,-6.83266 -0.0823,-9.53517 -2.04824,-3.7191496 -5.80804,-3.9925896 -7.46836,0.20799 -0.82707,4.90181 2.81322,6.70514 6.55442,4.3482 0.0465,1.58529 0.0807,2.95081 0.0248,4.54447 -0.6486,0.2382 -1.33137,0.49823 -2.0048,0.62742 -1.97843,0.39253 -4.01737,-0.12584 -5.62495,-1.43263 -1.63707,-1.3085 -2.71861,-3.27291 -2.99946,-5.45202 -0.67809,-4.90013 2.22982,-9.0705096 6.77632,-9.6894996 z"
     id="path35-6"
     style="display:block;fill:#5e4f00;fill-opacity:1;stroke-width:0.16134" />
  <path
     fill="#ebeff3"
     d="m 101.29878,1.2294664 2.94053,-0.0134 -0.008,4.4438 3.22134,0.005 c -0.0512,1.22799 -0.0388,2.62367 -0.0528,3.86674 -1.03192,0.047 -2.13206,0.0352 -3.16857,0.0436 -0.0341,1.1055296 -0.0745,12.0850596 -0.19089,12.3551396 l -3.97858,0.008 -0.0217,-12.3651996 c -0.828577,0.047 -1.657207,0.0369 -2.487367,0.0402 l -0.005,-3.92375 c 0.80379,-0.0235 1.67584,-0.0856 2.484277,-0.12752 0.0217,-1.41918 -0.240507,-2.70921 0.12106,-4.00263 0.4174,-0.44787 0.34913,-0.29689 1.14513,-0.33045 z"
     id="path42-5"
     style="display:block;fill:#5e4f00;fill-opacity:1;stroke-width:0.16134" />
  <path
     fill="#ebeff3"
     d="m 127.21078,5.6665664 h 4.09805 c -0.18619,4.9336496 0,11.2043296 0.0372,16.2453396 l -4.126,0.0772 z"
     id="path46-5"
     style="display:block;fill:#5e4f00;fill-opacity:1;stroke-width:0.16134" />
  <path
     fill="#ebeff3"
     d="m 137.12932,5.5591964 c 0.29015,-0.047 0.12566,-0.047 0.49035,0.0587 0.27929,0.73307 0.14895,3.24267 0.12721,4.12341 -2.38342,0.5971696 -3.58598,1.3655196 -5.27115,3.2074396 l -0.11173,0.11742 -0.15362,-0.0587 c -0.1288,-1.06523 -0.0481,-3.0464396 -0.031,-4.1871696 1.44153,-2.06001 2.63944,-2.86694 4.94997,-3.26114 z"
     id="path49-8"
     style="display:block;fill:#5e4f00;fill-opacity:1;stroke-width:0.16134" />
  <path
     fill-rule="evenodd"
     d="m 116.43329,5.0030864 c 4.82337,-0.0469 8.77287,3.82229 8.82514,8.6455396 0.0523,4.82326 -3.81253,8.77714 -8.63567,8.8348 -4.83088,0.0578 -8.79238,-3.81445 -8.84477,-8.64533 -0.0524,-4.8308796 3.82443,-8.7881196 8.6553,-8.8350096 m -0.45374,4.53473 c 2.3115,-0.316 4.44195,1.3009096 4.75929,3.6122996 0.31736,2.3114 -1.29832,4.44275 -3.60949,4.76156 -2.31319,0.31903 -4.44667,-1.29834 -4.76436,-3.61175 -0.31768,-2.3133 1.30103,-4.4458896 3.61456,-4.7621096"
     id="path2-0-8-2"
     style="display:inline;fill:#5e4f00;fill-opacity:1;stroke-width:0.112176" />
  <path
     fill-rule="evenodd"
     d="m 36.921676,3.9562164 c 4.823367,-0.0469 8.772869,3.8223 8.825137,8.6455496 0.05228,4.82325 -3.812527,8.77713 -8.635669,8.83479 -4.830882,0.0578 -8.792383,-3.81444 -8.84477,-8.64532 -0.05239,-4.8308796 3.824433,-8.7881296 8.655302,-8.8350196 m -0.453748,4.53473 c 2.311506,-0.316 4.441958,1.30092 4.759299,3.6122996 0.317354,2.3114 -1.298324,4.44275 -3.609499,4.76156 -2.313186,0.31904 -4.446667,-1.29833 -4.764352,-3.61174 -0.317685,-2.31331 1.301022,-4.4458896 3.614552,-4.7621196"
     id="path2-0-8-2-1-1"
     style="display:inline;fill:#ffffff;fill-opacity:1;stroke-width:0.112176" />
</svg>
